# Blender 4.5.3 LTS
# www.blender.org
o Anubis_Turret.001
v -0.012860 -0.424187 2.052160
v -0.469610 -0.429732 0.628343
v -0.174547 -0.707184 0.572430
v 0.139580 -0.368016 6.807256
v 0.281600 -0.175025 6.807353
v 0.069274 0.349520 6.807216
v -0.140347 0.319921 6.807313
v -0.063493 -0.607294 1.256218
v 0.160701 -0.513192 1.528721
v -0.759443 -0.459087 0.636369
v 0.281756 0.395384 1.331136
v -0.188498 0.461366 1.346891
v -0.209275 0.268789 1.971671
v -0.012205 0.387427 1.916763
v -0.290559 0.117652 2.042311
v -0.566018 -0.138861 0.613874
v 0.538890 0.229605 0.479003
v 0.433922 -0.108909 1.429219
v 0.227110 -0.307751 2.065879
v 0.415642 -0.513367 0.621628
v 0.192107 0.053146 10.536190
v 0.140463 -0.708606 0.570904
v -0.298520 0.007752 2.423856
v -0.190692 -0.339343 2.087388
v -0.537667 0.212600 0.486149
v -0.203412 -0.292379 2.423799
v -0.095867 -0.396979 6.807274
v -0.294388 -0.129061 2.112896
v 0.008805 0.360833 7.355358
v 0.177697 0.286238 7.355367
v -0.149921 0.302762 7.355347
v 0.084477 -0.243376 10.536192
v -0.031732 -0.412519 7.355579
v -0.759355 0.861829 -0.646411
v -0.759342 0.787790 -0.217144
v -0.264669 0.144575 6.807298
v -0.287833 -0.107218 6.807325
v -0.288558 0.087266 7.355444
v -0.241021 -0.244207 7.354929
v 0.290371 0.074005 7.355359
v 0.261902 0.180814 6.807264
v -0.237587 0.153442 7.903308
v -0.255667 -0.121421 7.903289
v -0.759382 0.044921 0.564228
v -0.759326 0.519475 0.263646
v -0.141652 0.322701 2.423844
v -0.759346 -0.885363 0.498980
v 0.263608 0.184782 2.424044
v 0.294087 -0.121811 2.077240
v 0.184042 0.034924 2.445753
v -0.245295 0.079125 10.536187
v 0.069779 0.357739 2.423744
v 0.086641 -0.058080 2.636257
v 0.234194 -0.273644 7.355210
v 0.767204 -0.884561 0.499308
v 0.767209 0.867308 -0.649604
v 0.767216 0.754900 -0.128533
v 0.065809 0.200591 2.391659
v 0.767179 -0.520752 0.623013
v 0.767239 0.057030 0.558640
v 0.767204 -0.232366 0.622088
v 0.767378 0.486416 0.286362
v 0.194087 0.205453 10.536190
v -0.013472 0.218166 10.536196
v 0.253812 -0.108901 10.536188
v 0.088211 -0.347745 10.536187
v -0.038657 0.308610 10.536225
v -0.028157 0.110381 2.582098
v -0.072661 0.195184 2.397060
v 0.061338 0.319301 7.903339
v 0.226162 0.188562 7.903304
v -0.171221 0.046932 2.472742
v 0.033842 0.026285 2.663629
v 0.219359 -0.230825 7.903374
v -0.188669 0.011775 10.536194
v 0.327505 0.620864 0.131232
v -0.075883 -0.240184 10.536188
v -0.101336 0.301281 7.903312
v -0.114040 0.744430 -0.110258
v 0.020228 -0.135483 2.646993
v -0.106493 -0.354227 7.903383
v -0.071412 -0.019866 2.652633
v -0.178083 -0.266209 10.536232
v 0.547213 -0.202890 0.619286
v 0.273260 -0.052105 7.903300
v -0.148718 -0.129438 2.514104
v 0.533182 -0.216924 0.619713
v 0.160113 -0.360680 2.423900
v 0.297169 0.119572 2.002640
v 0.101565 -0.350712 7.903303
v 0.116241 0.353151 1.933165
v -0.059810 -0.239486 2.512764
v 0.124256 -0.206629 2.469233
v -0.067538 -0.398227 2.423845
v -0.391119 0.534385 0.227988
vn -0.3815 -0.8952 0.2302
vn 0.1467 -0.9660 0.2129
vn 0.4378 0.8804 0.1821
vn -0.1733 0.9684 0.1793
vn 0.9056 -0.3870 0.1733
vn 0.1703 -0.9662 0.1935
vn -0.7382 0.6512 0.1762
vn -0.8336 0.5264 0.1671
vn -0.8410 0.5153 0.1650
vn -0.9465 -0.2999 0.1194
vn -0.6575 -0.7337 0.1712
vn 0.6582 0.7516 -0.0434
vn -0.1397 0.9895 -0.0358
vn -0.9819 0.0660 0.1775
vn -0.8898 0.4432 0.1091
vn -0.8645 0.4977 0.0700
vn -0.9998 0.0104 -0.0179
vn 0.1220 -0.9916 -0.0424
vn -0.9376 -0.3022 0.1719
vn -0.8702 -0.4527 0.1944
vn -0.8952 -0.4449 0.0283
vn -0.8155 0.5782 0.0249
vn -0.8410 0.5410 0.0022
vn -0.8318 -0.5511 -0.0667
vn -0.6260 -0.7782 0.0512
vn -0.9952 0.0916 -0.0338
vn -0.9887 -0.1419 0.0490
vn -0.9899 -0.1420 0.0053
vn -0.4778 -0.8548 0.2025
vn 0.9856 -0.1593 0.0566
vn -0.8409 0.5410 0.0129
vn -0.9943 0.0654 0.0846
vn -0.8380 -0.5369 0.0978
vn 0.4618 -0.8840 0.0725
vn 0.8049 -0.5923 -0.0370
vn -0.3435 0.9389 0.0234
vn 0.4039 0.9144 0.0257
vn -0.0000 -0.0000 1.0000
vn 0.0001 -0.0000 1.0000
vn -0.0190 0.9072 0.4203
vn 0.6192 0.7807 0.0844
vn 0.0088 0.9775 0.2109
vn -0.0032 0.9854 0.1700
vn 0.6411 0.6097 0.4661
vn -0.0000 -0.0003 1.0000
vn -0.0001 -0.0000 1.0000
vn 0.0003 -0.0002 1.0000
vn -0.0000 -0.0001 1.0000
vn 0.0649 0.8378 0.5421
vn -0.0028 0.9206 0.3906
vn -0.0220 0.8730 0.4872
vn -0.0011 0.8894 0.4571
vn 0.8326 -0.5538 -0.0006
vn -0.8951 0.4458 -0.0070
vn -0.8336 -0.5523 0.0073
vn 0.4629 -0.8863 -0.0126
vn 0.3434 0.7719 0.5351
vn 0.1830 0.9697 0.1616
vn 0.7774 0.3087 0.5481
vn 0.2957 -0.1223 0.9474
vn 0.0168 -0.9940 0.1081
vn 0.2338 0.9574 0.1696
vn 0.8832 0.4689 0.0055
vn 0.0004 0.0002 1.0000
vn 0.9894 0.0616 0.1313
vn 0.0003 0.0005 1.0000
vn -0.6246 0.6421 0.4445
vn -0.6527 0.5168 0.5540
vn -0.0996 0.3053 0.9470
vn 0.9786 0.1915 0.0746
vn 0.9872 -0.1595 -0.0059
vn -0.3149 0.5307 0.7869
vn 0.1095 0.5323 0.8395
vn -0.8740 0.0024 0.4858
vn -0.0742 0.6398 0.7649
vn -0.0038 0.0080 1.0000
vn -0.0099 0.0032 0.9999
vn 0.0162 0.2141 0.9767
vn 0.9178 -0.3629 0.1610
vn 0.9824 0.1866 0.0113
vn 0.0001 0.0001 1.0000
vn 0.9563 -0.2884 0.0484
vn 0.6986 -0.6930 0.1781
vn 0.8156 0.5622 0.1367
vn 0.9722 0.1649 0.1661
vn 0.8682 0.4657 0.1714
vn 0.7113 -0.6990 0.0738
vn -0.1629 0.9831 0.0839
vn 0.2560 0.9666 0.0152
vn -0.1097 0.9903 0.0856
vn 0.4038 0.9143 0.0306
vn -0.0089 -0.2397 0.9708
vn -0.1749 0.9846 0.0036
vn 0.2639 -0.8323 0.4875
vn 0.9087 -0.1887 0.3725
vn 0.9127 0.4086 -0.0026
vn 0.0178 -0.3219 0.9466
vn -0.0000 -0.3811 0.9245
vn 0.0028 -0.3682 0.9297
vn 0.6742 -0.7138 0.1896
vn -0.0038 -0.9894 0.1451
vn 0.5524 -0.8190 0.1554
vn -0.3434 0.9386 0.0330
vn -0.8143 -0.5805 0.0021
vn -0.7337 0.6762 0.0669
vn 0.0180 0.8427 0.5380
vn -0.4806 0.8651 0.1435
vn 0.6214 0.7835 0.0025
vn 0.6571 -0.4836 0.5781
vn -0.0612 -0.0970 0.9934
vn 0.0518 0.6105 0.7903
vn 0.7297 0.6382 0.2454
vn -0.4474 0.8587 0.2498
vn 0.9813 0.1920 0.0107
vn -0.1066 0.5321 0.8400
vn -0.9768 0.1382 0.1635
vn 0.0773 0.3350 0.9390
vn -0.5645 -0.4644 0.6824
vn -0.5495 -0.4693 0.6913
vn -0.9400 0.3412 -0.0031
vn 0.9574 -0.2887 0.0008
vn 0.7133 -0.7008 0.0044
vn 0.8217 -0.5697 0.0156
vn 0.4051 0.9141 0.0191
vn 0.9919 0.1272 0.0027
vn -0.7430 0.6691 0.0158
vn 0.7946 0.6064 -0.0306
vn -0.1101 0.9939 -0.0001
vn 0.9969 0.0113 0.0777
vn 0.7624 -0.6471 -0.0037
vn 0.6647 0.7450 0.0560
vn 0.0219 0.0569 0.9981
vn -0.5205 0.8535 -0.0239
vn -0.1186 0.1407 0.9829
vn 0.0429 -0.1534 0.9872
vn 0.4057 -0.8693 0.2823
vn -0.0261 -0.3067 0.9515
vn 0.9196 -0.3430 0.1916
vn -0.6267 -0.7793 -0.0026
vn 0.9312 -0.3430 0.1235
vn 0.0169 -0.9999 0.0012
vn -0.8420 -0.5395 -0.0049
vn -0.2927 -0.9559 0.0240
vn 0.8823 0.4684 0.0455
vn -0.7352 0.6776 0.0170
vn -0.9978 0.0656 -0.0011
vn -0.9814 -0.1910 0.0184
vn 0.9759 0.0529 0.2116
vn 0.9976 0.0552 -0.0411
vn -0.4307 -0.9025 -0.0003
vn 0.4383 -0.8974 -0.0506
vn -0.6123 -0.7859 0.0866
vn 0.1620 -0.9824 0.0925
vn -0.9958 0.0916 0.0048
vn -0.9533 -0.3021 -0.0056
vn 0.8742 -0.4855 0.0033
vn 0.1627 -0.9867 0.0013
vn -0.8158 0.5784 0.0006
vn 0.0391 -0.9992 0.0025
vn 0.6658 0.7461 0.0009
vn -0.9707 0.2403 0.0004
vn 0.8054 -0.5927 -0.0045
vn -0.1398 0.9902 0.0018
vn -0.1635 0.9865 0.0007
vn -0.6260 -0.7798 -0.0044
vn -0.6145 -0.7889 -0.0037
vn 0.0199 0.9998 0.0001
vn 0.1221 -0.9925 -0.0011
vn 0.7779 0.6284 0.0016
vn 0.6588 0.7523 0.0015
vn 0.9985 0.0553 0.0004
vn 0.9955 0.0948 0.0037
vn -1.0000 -0.0000 -0.0000
vn 0.0005 -0.5484 -0.8362
vn 1.0000 -0.0001 0.0004
vn 1.0000 -0.0001 0.0003
vn 1.0000 -0.0001 0.0005
vn 1.0000 -0.0000 -0.0000
vn 1.0000 -0.0002 -0.0005
vn -1.0000 -0.0000 -0.0007
vn -1.0000 -0.0000 -0.0002
vn 0.0002 -0.5483 -0.8363
s 0
f 8//1 1//1 24//1
f 9//2 1//2 8//2
f 11//3 76//3 91//3
f 14//4 79//4 12//4
f 18//5 19//5 20//5
f 8//6 22//6 9//6
f 95//7 13//7 12//7
f 15//8 13//8 95//8
f 95//9 25//9 15//9
f 26//10 23//10 28//10
f 24//11 2//11 3//11
f 30//12 41//12 6//12
f 6//13 7//13 29//13
f 15//14 16//14 28//14
f 15//15 23//15 46//15
f 13//16 15//16 46//16
f 23//17 15//17 28//17
f 33//18 27//18 4//18
f 16//19 2//19 28//19
f 2//20 24//20 28//20
f 24//21 26//21 28//21
f 36//22 38//22 7//22
f 38//23 31//23 7//23
f 37//24 27//24 39//24
f 33//25 39//25 27//25
f 36//26 37//26 38//26
f 38//27 37//27 39//27
f 38//28 39//28 43//28
f 24//29 3//29 8//29
f 54//30 5//30 40//30
f 31//31 38//31 42//31
f 38//32 43//32 42//32
f 39//33 81//33 43//33
f 4//34 54//34 33//34
f 4//35 5//35 54//35
f 29//36 7//36 31//36
f 6//37 29//37 30//37
f 63//38 21//38 65//38
f 32//38 65//38 21//38
f 65//39 32//39 66//39
f 21//38 63//38 64//38
f 58//40 69//40 68//40
f 70//41 71//41 30//41
f 57//42 56//42 35//42
f 56//43 34//43 35//43
f 50//44 58//44 73//44
f 63//45 67//45 64//45
f 51//46 75//46 67//46
f 64//47 67//47 75//47
f 32//48 77//48 66//48
f 62//49 57//49 76//49
f 35//50 79//50 57//50
f 45//51 79//51 35//51
f 79//52 76//52 57//52
f 69//53 75//53 72//53
f 46//54 23//54 36//54
f 26//55 27//55 37//55
f 90//56 33//56 54//56
f 58//57 68//57 73//57
f 14//58 76//58 79//58
f 50//59 73//59 53//59
f 80//60 53//60 73//60
f 90//61 81//61 33//61
f 91//62 76//62 14//62
f 71//63 40//63 30//63
f 75//64 83//64 77//64
f 17//65 18//65 84//65
f 66//66 77//66 83//66
f 69//67 72//67 68//67
f 82//68 68//68 72//68
f 84//69 60//69 17//69
f 85//70 40//70 71//70
f 40//71 85//71 54//71
f 68//72 82//72 73//72
f 60//73 62//73 17//73
f 72//74 86//74 82//74
f 76//75 17//75 62//75
f 20//76 59//76 87//76
f 61//77 87//77 59//77
f 60//78 84//78 61//78
f 87//79 18//79 20//79
f 85//80 63//80 65//80
f 83//81 75//81 51//81
f 74//82 54//82 85//82
f 18//83 87//83 84//83
f 76//84 11//84 17//84
f 18//85 17//85 89//85
f 11//86 89//86 17//86
f 90//87 54//87 74//87
f 46//88 52//88 14//88
f 52//89 91//89 14//89
f 29//90 78//90 70//90
f 70//91 30//91 29//91
f 20//92 22//92 59//92
f 93//93 92//93 32//93
f 80//94 92//94 93//94
f 93//95 50//95 53//95
f 75//96 77//96 86//96
f 59//97 22//97 55//97
f 47//98 55//98 3//98
f 3//99 55//99 22//99
f 9//100 20//100 19//100
f 3//101 22//101 8//101
f 22//102 20//102 9//102
f 78//103 29//103 31//103
f 58//104 50//104 21//104
f 31//105 42//105 78//105
f 95//106 79//106 45//106
f 79//107 95//107 12//107
f 70//108 63//108 71//108
f 80//109 93//109 53//109
f 73//110 82//110 80//110
f 95//111 45//111 25//111
f 11//112 91//112 89//112
f 13//113 14//113 12//113
f 85//114 71//114 63//114
f 44//115 25//115 45//115
f 25//116 16//116 15//116
f 16//117 25//117 44//117
f 82//118 86//118 92//118
f 82//119 92//119 80//119
f 93//120 32//120 21//120
f 85//121 65//121 74//121
f 74//122 66//122 90//122
f 66//123 74//123 65//123
f 67//124 63//124 70//124
f 72//125 75//125 86//125
f 51//126 67//126 78//126
f 91//127 48//127 89//127
f 78//128 67//128 70//128
f 49//129 89//129 48//129
f 69//130 64//130 75//130
f 48//131 91//131 52//131
f 10//132 2//132 16//132
f 14//133 13//133 46//133
f 44//134 10//134 16//134
f 10//135 3//135 2//135
f 19//136 1//136 9//136
f 3//137 10//137 47//137
f 19//138 18//138 49//138
f 81//139 39//139 33//139
f 88//140 19//140 49//140
f 90//141 66//141 81//141
f 43//142 81//142 83//142
f 66//143 83//143 81//143
f 40//144 41//144 30//144
f 78//145 42//145 51//145
f 42//146 43//146 51//146
f 51//147 43//147 83//147
f 18//148 89//148 49//148
f 41//149 40//149 5//149
f 1//150 94//150 24//150
f 19//151 88//151 1//151
f 26//152 24//152 94//152
f 94//153 1//153 88//153
f 37//154 36//154 23//154
f 26//155 37//155 23//155
f 4//156 88//156 49//156
f 27//157 94//157 88//157
f 36//158 7//158 46//158
f 58//159 64//159 69//159
f 52//160 41//160 48//160
f 21//161 50//161 93//161
f 4//162 49//162 5//162
f 7//163 6//163 52//163
f 52//164 46//164 7//164
f 21//165 64//165 58//165
f 26//166 94//166 27//166
f 32//167 92//167 77//167
f 4//168 27//168 88//168
f 77//169 92//169 86//169
f 6//170 41//170 52//170
f 41//171 5//171 48//171
f 5//172 49//172 48//172
f 45//173 35//173 47//173
f 47//174 56//174 55//174
f 62//175 60//175 55//175
f 60//176 61//176 55//176
f 61//177 59//177 55//177
f 56//178 57//178 55//178
f 57//179 62//179 55//179
f 35//173 34//173 47//173
f 10//180 44//180 47//180
f 44//181 45//181 47//181
f 47//182 34//182 56//182
