# Blender 4.5.3 LTS
# www.blender.org
mtllib anubis_canon.mtl
o Anubis_Turret.001
v 0.043546 -0.418154 2.042795
v -0.442053 -0.458145 0.624717
v -0.281655 -0.632824 0.592265
v 0.153513 -0.343699 6.807340
v 0.126032 -0.387420 6.807331
v 0.280701 -0.197830 6.807345
v 0.039287 0.374069 6.807331
v -0.081392 0.330819 6.807340
v 0.082859 0.330709 6.807340
v 0.000972 -0.596114 1.308930
v 0.105722 -0.510381 1.622110
v -0.116045 -0.578727 1.302814
v 0.226886 -0.518872 1.318453
v -0.759345 -0.639609 0.592429
v -0.077844 -0.404214 2.047601
v 0.247324 0.477619 1.063227
v 0.104835 0.451947 1.523155
v -0.228201 0.443209 1.306902
v -0.277596 0.298090 1.645512
v -0.000402 0.580834 0.957110
v -0.107757 0.449532 1.527902
v -0.377160 0.154536 1.577405
v -0.440886 -0.096294 1.383108
v 0.420594 0.257005 1.091967
v 0.304098 0.327579 1.461145
v -0.102997 -0.213173 2.472096
v -0.048804 -0.167662 2.595325
v 0.451676 -0.185310 1.226406
v 0.321865 -0.349684 1.582363
v 0.478882 -0.381305 0.627290
v -0.246559 0.141696 2.423737
v 0.186271 -0.033653 10.536185
v 0.140463 -0.708606 0.570904
v -0.201709 0.268715 2.423741
v -0.159338 0.316330 6.807346
v -0.283780 0.106509 2.423748
v -0.278285 -0.053819 2.423738
v -0.290544 -0.116117 2.423746
v -0.388214 -0.318608 1.326794
v -0.246993 -0.438726 1.587943
v -0.142121 0.294717 2.423737
v -0.501682 0.315041 0.416567
v -0.200555 -0.315425 2.423653
v -0.215763 -0.252656 2.423736
v -0.544077 0.149745 0.515795
v -0.029233 -0.404530 6.807331
v -0.153982 -0.363163 6.807343
v -0.145072 -0.339170 6.807339
v -0.271860 -0.188041 2.098492
v 0.044339 -0.419216 7.355293
v 0.013660 0.376385 7.355291
v 0.190516 0.291570 7.355281
v 0.215214 0.264917 6.807346
v -0.297575 -0.043126 2.087898
v -0.197546 0.274352 1.973418
v -0.280991 0.119234 2.042073
v -0.149770 0.319151 7.355298
v 0.035995 -0.256035 10.536188
v -0.087068 -0.337598 7.903237
v -0.133136 -0.378186 7.355282
v -0.759355 0.861829 -0.646411
v -0.759342 0.787790 -0.217144
v -0.218706 0.203194 6.807340
v -0.278490 0.121719 6.807330
v -0.278837 0.002037 6.807339
v -0.287255 -0.155452 6.807335
v -0.190011 -0.331563 2.071011
v -0.261286 0.169212 7.355292
v -0.155437 0.286364 7.355295
v -0.267010 0.082988 7.355286
v -0.247756 -0.183702 6.807339
v -0.299453 -0.038114 7.355284
v -0.251970 -0.228905 7.355300
v -0.193313 -0.289845 7.355293
v 0.169742 0.277017 7.355290
v 0.301179 0.071935 7.355289
v 0.300370 0.054448 6.807330
v -0.230815 0.190730 7.903235
v -0.759330 0.646476 0.077229
v -0.759337 -0.336546 0.633028
v -0.275209 -0.100276 7.903248
v -0.759382 0.044921 0.564228
v -0.759325 0.399840 0.356575
v 0.017183 0.345549 2.423736
v -0.064325 0.363779 2.423738
v 0.274473 0.084665 7.355289
v -0.169326 -0.315584 7.903237
v -0.759346 -0.885363 0.498980
v -0.242048 0.066392 7.903239
v -0.114334 0.276566 7.903238
v 0.226666 0.202175 2.423737
v 0.284046 0.102184 2.423747
v 0.263436 -0.172846 7.355284
v 0.287407 -0.120799 2.423749
v 0.184739 -0.042645 2.453740
v -0.225791 -0.166403 7.903240
v 0.209087 0.269160 2.423746
v -0.245295 0.079125 10.536187
v 0.069465 0.359248 2.423744
v 0.248308 0.208614 1.989224
v 0.121240 -0.034569 2.584303
v 0.156267 0.103331 2.422235
v 0.276737 -0.197171 7.355296
v 0.170244 -0.333105 7.355296
v 0.767204 -0.884561 0.499308
v 0.145416 0.127640 10.536190
v 0.767209 0.867308 -0.649604
v 0.767216 0.754900 -0.128533
v 0.065809 0.200591 2.391659
v 0.012530 0.346171 7.355295
v 0.767179 -0.520752 0.623013
v 0.767239 0.057030 0.558640
v 0.767204 -0.232366 0.622088
v -0.101441 0.278694 10.536188
v 0.767204 0.608507 0.128057
v 0.767254 0.390360 0.364182
v 0.194087 0.205453 10.536190
v -0.070393 0.193815 10.536188
v 0.253812 -0.108901 10.536188
v 0.121654 -0.203239 10.536188
v 0.138485 -0.303168 10.536187
v -0.123952 -0.311510 10.536186
v 0.184494 0.211646 7.903237
v 0.032863 0.304936 10.536188
v 0.043631 0.210312 10.536190
v 0.003174 0.159965 2.498311
v -0.027878 -0.392513 7.355294
v -0.072661 0.195184 2.397060
v 0.072349 0.336031 7.903238
v 0.243736 0.182632 7.903236
v -0.173909 -0.009841 2.476729
v 0.068342 0.079173 2.589833
v 0.225947 -0.250638 7.903236
v -0.148140 0.102229 2.438887
v -0.164436 0.072285 10.536188
v -0.099820 0.018052 2.602708
v 0.048511 0.302906 7.903239
v 0.423334 0.472898 0.285737
v -0.075883 -0.240184 10.536188
v -0.084468 0.326627 7.903249
v 0.181996 0.710314 -0.038720
v 0.307640 0.611602 0.126665
v 0.000349 0.748579 -0.125383
v -0.165733 0.717833 -0.053377
v 0.013020 -0.010055 2.675703
v -0.036576 0.088728 2.598392
v 0.062712 -0.075264 2.648906
v 0.014366 -0.352254 10.536192
v -0.000254 -0.100069 2.662735
v -0.036186 -0.387523 7.903247
v -0.046461 -0.038200 2.665873
v -0.168457 -0.093059 10.536188
v -0.222270 -0.166692 10.536190
v 0.555949 -0.052086 0.590126
v 0.417903 -0.041781 1.511566
v 0.526245 0.237492 0.473232
v 0.474146 0.116223 1.059849
v 0.219922 -0.195427 7.903239
v 0.257442 0.001599 7.903239
v 0.281179 -0.078908 7.903245
v -0.109303 -0.113743 2.578335
v 0.225725 -0.279454 2.423740
v 0.533182 -0.216924 0.619713
v 0.535034 -0.201757 0.617299
v 0.085416 -0.376578 2.423738
v 0.142687 -0.170850 2.473072
v 0.305223 0.013576 2.047546
v 0.340725 0.134854 1.771188
v 0.290703 -0.140940 2.066963
v 0.099657 -0.332628 7.903240
v 0.104264 -0.367578 7.903243
v 0.130512 0.339958 1.930237
v -0.035545 0.371418 1.912723
v -0.008301 -0.259670 2.467026
v 0.038212 -0.172875 2.598649
v 0.080538 -0.235158 2.460783
v 0.339615 -0.588197 0.604445
v -0.159476 -0.121908 2.476038
v -0.086195 -0.724699 0.564729
v 0.090281 -0.403598 2.423736
v -0.422866 0.480608 0.280642
v -0.083659 -0.375975 2.423737
v -0.063567 -0.410104 2.423740
v -0.301050 0.616130 0.118218
v -0.545439 -0.165108 0.616616
v 0.236598 -0.280212 2.057400
v 0.153842 -0.364907 2.052716
v 0.241273 0.185910 6.807339
v 0.280027 -0.104523 6.807339
vn -0.0006 0.0006 -1.0000
vn -0.0000 -0.0002 -1.0000
vn -0.4375 -0.8702 0.2263
vn -0.1014 -0.9655 0.2400
vn -0.1548 -0.9601 0.2329
vn 0.1094 -0.9674 0.2283
vn 0.3823 0.9084 0.1692
vn -0.2556 0.9516 0.1708
vn 0.9146 -0.3701 0.1626
vn 0.2218 -0.9569 0.1878
vn 0.0005 -0.0002 1.0000
vn 0.3951 -0.9003 0.1828
vn -0.0001 0.0001 -1.0000
vn 0.0008 -0.0000 1.0000
vn 0.0003 -0.0000 1.0000
vn 0.0001 -0.0001 1.0000
vn -0.7493 0.6412 0.1655
vn -0.8449 0.5109 0.1583
vn -0.8325 0.5297 0.1625
vn -0.0041 -0.0023 1.0000
vn 0.0003 0.0001 1.0000
vn -0.9339 0.3268 0.1454
vn -0.0000 0.0002 -1.0000
vn -0.0001 -0.0001 -1.0000
vn -0.9107 -0.4112 0.0386
vn -0.9521 -0.2645 0.1536
vn -0.7125 -0.6836 0.1581
vn 0.5271 0.8496 -0.0176
vn -0.2791 0.9601 -0.0171
vn -0.9765 0.1001 0.1910
vn -0.8923 0.4515 0.0085
vn -0.9992 0.0304 0.0275
vn -0.8811 0.4730 -0.0022
vn -0.9949 0.1005 -0.0039
vn 0.1094 -0.9931 -0.0413
vn -0.3147 -0.9491 -0.0140
vn -0.8473 0.4733 0.2411
vn -0.8192 0.5337 0.2101
vn -0.9645 0.1582 0.2116
vn -0.9656 -0.1561 0.2081
vn -0.9439 -0.2713 0.1882
vn -0.8306 -0.5148 0.2123
vn 0.0003 -0.0001 -1.0000
vn -0.9842 -0.1759 -0.0176
vn 0.0019 -0.0001 -1.0000
vn 0.0001 -0.0000 -1.0000
vn 0.0002 0.0001 -1.0000
vn -0.8689 -0.4949 -0.0033
vn -0.8527 0.5221 -0.0185
vn -0.8024 0.5967 0.0109
vn -0.8415 -0.5399 -0.0182
vn -0.7823 -0.6228 0.0127
vn 0.0004 -0.0001 1.0000
vn -0.9834 0.1810 0.0152
vn -0.9991 0.0316 -0.0290
vn -0.0002 -0.0000 1.0000
vn -0.9700 -0.2414 0.0301
vn -0.8309 -0.5145 0.2121
vn -0.0000 -0.0000 1.0000
vn 0.0003 0.0002 1.0000
vn -0.9984 -0.0481 -0.0310
vn -0.5054 -0.8435 0.1820
vn 0.9959 -0.0905 0.0073
vn -0.7142 -0.6875 0.1311
vn -0.8761 0.4807 -0.0366
vn -0.9879 0.1507 0.0356
vn 0.0002 -0.0000 1.0000
vn -0.8972 -0.4412 0.0186
vn -0.0008 -0.0003 1.0000
vn 0.9120 0.4094 0.0253
vn -0.0001 -0.0002 1.0000
vn 0.8748 0.2590 0.4094
vn 0.5642 -0.8249 0.0362
vn -0.0007 0.0001 1.0000
vn 0.7749 -0.6321 0.0001
vn 0.7872 -0.6167 0.0064
vn -0.0004 0.0003 1.0000
vn -0.0000 0.0001 1.0000
vn -0.3305 0.9438 0.0009
vn -0.0001 -0.0003 1.0000
vn 0.0001 -0.0002 1.0000
vn 0.4324 0.9016 0.0164
vn 0.0001 0.0001 1.0000
vn 0.0002 0.0003 1.0000
vn -0.0000 -0.0001 1.0000
vn -0.0001 -0.0000 1.0000
vn -0.0232 0.9387 0.3439
vn -0.0002 -0.0005 1.0000
vn -0.2252 -0.9743 0.0041
vn 0.6664 0.7446 0.0383
vn 0.0088 0.9775 0.2109
vn -0.0032 0.9854 0.1700
vn 0.5985 0.6865 0.4129
vn 0.9747 -0.2237 0.0011
vn -0.8425 0.3359 0.4211
vn 0.0119 0.8626 0.5058
vn 0.0043 0.8686 0.4955
vn -0.0057 0.9018 0.4322
vn -0.0132 0.9014 0.4327
vn -0.0058 0.9102 0.4141
vn -0.0000 0.9196 0.3927
vn 0.7761 -0.6306 -0.0008
vn 0.0031 0.7548 0.6559
vn 0.0215 0.7343 0.6784
vn -0.8260 0.5637 -0.0027
vn -0.8344 -0.5511 0.0026
vn 0.1211 0.7854 0.6071
vn 0.2871 -0.9575 -0.0257
vn 0.3134 0.8115 0.4932
vn 0.1338 0.9793 0.1518
vn -0.1158 0.9816 0.1520
vn 0.8069 0.3522 0.4741
vn 0.1204 0.6486 0.7515
vn 0.6699 0.7277 0.1472
vn 0.4766 0.8655 0.1545
vn 0.2771 -0.1769 0.9444
vn 0.1406 -0.9900 0.0111
vn 0.2521 0.9526 0.1700
vn 0.8777 0.4779 -0.0362
vn 0.7113 0.6852 0.1569
vn 0.6582 0.2038 0.7247
vn 0.6562 0.2709 0.7043
vn 0.9869 -0.0629 0.1486
vn 0.9867 0.0692 0.1471
vn -0.4465 0.4469 0.7752
vn -0.2643 0.8322 0.4874
vn -0.5764 0.6752 0.4603
vn -0.6330 0.5966 0.4933
vn -0.0524 0.3692 0.9279
vn 0.9819 0.1483 0.1179
vn 0.9895 0.1417 0.0302
vn -0.0003 -0.0000 1.0000
vn 0.9988 -0.0428 -0.0250
vn -0.3525 0.4605 0.8146
vn 0.0710 0.5026 0.8616
vn -0.8583 -0.0329 0.5121
vn 0.9350 0.3216 0.1495
vn -0.0326 0.6139 0.7887
vn 0.8651 0.4837 0.1325
vn 0.0320 0.0355 0.9989
vn 0.0032 0.1782 0.9840
vn -0.0099 0.0032 0.9999
vn 0.0349 0.2140 0.9762
vn 0.9418 -0.3045 0.1424
vn 0.9824 0.1866 0.0092
vn 0.9518 -0.3061 0.0217
vn 0.4966 0.8444 0.2010
vn 0.0375 0.9758 0.2152
vn -0.0702 0.9749 0.2111
vn 0.9841 -0.1125 0.1377
vn 0.9856 -0.0984 0.1375
vn -0.0290 -0.0904 0.9955
vn 0.8173 0.5559 0.1516
vn 0.9705 0.1628 0.1778
vn 0.9336 0.3171 0.1668
vn 0.8670 0.4626 0.1851
vn 0.6054 0.7694 0.2037
vn 0.8644 -0.5027 -0.0122
vn 0.9684 -0.1571 0.1937
vn 0.6924 -0.7205 0.0380
vn 0.0338 0.9993 0.0168
vn 0.1877 0.9821 -0.0152
vn -0.0000 -0.0002 1.0000
vn -0.0598 0.9979 0.0250
vn 0.4025 0.9150 -0.0270
vn 0.0007 -0.2694 0.9630
vn -0.2659 0.9640 0.0010
vn 0.2658 -0.8453 0.4635
vn 0.5851 -0.6564 0.4762
vn 0.8718 -0.2200 0.4376
vn -0.8879 -0.1171 0.4448
vn 0.8464 0.5326 -0.0010
vn 0.0178 -0.3219 0.9466
vn -0.7656 -0.4917 0.4148
vn -0.0000 -0.3787 0.9255
vn 0.0012 -0.3732 0.9278
vn -0.3711 -0.8061 0.4609
vn 0.7127 -0.6784 0.1784
vn 0.8120 -0.5634 0.1522
vn -0.4010 -0.9016 0.1621
vn -0.1539 -0.9705 0.1857
vn 0.0655 -0.9845 0.1624
vn 0.4907 -0.8564 0.1606
vn -0.0306 0.7493 0.6615
vn -0.0010 -0.0005 1.0000
vn -0.0016 -0.0017 1.0000
vn 0.0002 -0.0003 1.0000
vn -0.3353 0.9418 -0.0258
vn -0.7324 -0.6809 0.0011
vn -0.6801 0.7324 0.0343
vn 0.0106 0.8565 0.5160
vn 0.0001 -0.0000 1.0000
vn -0.4600 0.8742 0.1554
vn -0.0061 0.7700 0.6380
vn -0.6401 0.7538 0.1489
vn 0.5573 0.8303 -0.0001
vn 0.6855 -0.4618 0.5629
vn 0.7934 -0.3050 0.5267
vn -0.3582 0.9182 0.1689
vn 0.1543 0.9551 0.2530
vn -0.1030 -0.1269 0.9865
vn -0.5248 0.8097 0.2628
vn 0.0251 0.6271 0.7785
vn -0.0686 -0.6793 0.7306
vn 0.6710 0.7050 0.2297
vn -0.4311 0.8697 0.2402
vn 0.3683 -0.4970 0.7857
vn 0.9446 0.3281 -0.0027
vn -0.0516 0.5043 0.8620
vn -0.9796 0.1300 0.1534
vn -0.0708 -0.8210 0.5664
vn -0.0278 0.5197 0.8539
vn -0.7871 -0.0570 0.6142
vn 0.0658 0.3040 0.9504
vn -0.9903 0.0462 0.1309
vn -0.5544 -0.3905 0.7350
vn -0.4953 -0.4088 0.7666
vn -0.9345 0.3561 -0.0010
vn 0.9823 -0.1871 -0.0065
vn 0.7520 -0.6592 -0.0037
vn 0.8599 -0.5105 0.0057
vn 0.5251 0.8510 0.0025
vn 0.9918 0.1277 0.0006
vn -0.6507 -0.5733 0.4979
vn -0.8112 0.5847 0.0035
vn -0.1918 0.9814 0.0001
vn -0.4914 -0.8709 0.0004
vn 0.7497 0.6614 -0.0245
vn -0.0000 0.0002 1.0000
vn 0.8534 0.4819 0.1987
vn -0.1597 0.9872 -0.0017
vn 0.9985 0.0150 0.0527
vn 0.7909 -0.6120 -0.0003
vn 0.9608 0.2770 -0.0112
vn 0.9710 0.1465 0.1890
vn 0.9011 0.3425 0.2661
vn 0.5418 0.8398 0.0342
vn -0.9354 -0.3262 0.1366
vn 0.0425 0.0426 0.9982
vn -0.5184 0.8550 -0.0164
vn -0.5690 0.8223 0.0050
vn -0.0666 0.1771 0.9819
vn -0.6589 0.7214 0.2131
vn -0.0249 -0.1327 0.9908
vn -0.4910 -0.8365 0.2435
vn 0.0029 -0.1801 0.9836
vn 0.4022 -0.8801 0.2524
vn -0.8050 -0.5671 0.1744
vn -0.0065 -0.3554 0.9347
vn 0.5054 -0.8331 0.2250
vn 0.6684 -0.7118 0.2157
vn 0.0043 -0.2787 0.9604
vn 0.9297 -0.3129 0.1946
vn 0.0001 0.0003 1.0000
vn 0.6752 -0.7366 0.0388
vn -0.5272 -0.8496 -0.0168
vn -0.4754 -0.8798 0.0008
vn 0.9317 -0.3622 0.0284
vn 0.9957 -0.0918 0.0144
vn 0.7144 -0.6993 0.0227
vn 0.3678 -0.9299 0.0050
vn 0.0266 -0.9996 -0.0066
vn 0.9311 -0.3637 0.0291
vn -0.7769 -0.6296 -0.0046
vn -0.2826 -0.9592 0.0055
vn -0.0001 -0.0003 -1.0000
vn 0.0001 0.0001 -1.0000
vn 0.8929 0.4499 0.0184
vn -0.8546 0.5193 -0.0036
vn -0.9976 -0.0697 -0.0009
vn -0.9956 -0.0933 0.0013
vn -0.8273 -0.5617 0.0010
vn 0.6907 -0.6874 0.2245
vn 0.9050 -0.3664 0.2160
vn 0.0001 -0.0001 -1.0000
vn 0.9752 -0.0650 0.2117
vn 0.9970 -0.0777 0.0010
vn 0.9269 0.3750 -0.0133
vn -0.5425 -0.8400 0.0074
vn 0.0002 0.0002 -1.0000
vn -0.9694 -0.2455 -0.0006
vn -0.9815 -0.1914 0.0004
vn -0.1145 -0.9934 -0.0112
vn -0.0002 -0.0000 -1.0000
vn 0.4361 -0.8997 -0.0191
vn -0.5685 -0.8225 0.0206
vn 0.0422 -0.9986 0.0330
vn 0.4408 0.8976 0.0015
vn -0.9871 0.1602 -0.0022
vn -0.9863 -0.1650 0.0020
vn -0.9581 0.2864 0.0021
vn -0.9539 -0.3000 -0.0022
vn 0.9320 -0.3623 0.0100
vn -0.0036 -1.0000 -0.0065
vn -0.6808 0.7325 0.0034
vn 0.0391 -0.9992 0.0013
vn 0.9997 -0.0243 -0.0009
vn 0.7068 0.7074 0.0003
vn -0.9502 0.3116 -0.0002
vn 0.5692 -0.8222 -0.0027
vn 0.8839 -0.4676 0.0032
vn 0.0007 1.0000 0.0034
vn -0.2535 0.9673 0.0071
vn -0.3040 0.9527 -0.0036
vn 0.1432 -0.9897 -0.0002
vn -0.6305 -0.7762 -0.0008
vn -0.7192 0.6948 0.0009
vn -0.6824 -0.7310 -0.0034
vn 0.1403 0.9901 -0.0012
vn -0.5247 0.8513 -0.0007
vn 0.3158 -0.9488 0.0022
vn 0.8503 0.5263 -0.0011
vn 0.6747 0.7381 0.0027
vn 0.8673 0.4977 -0.0010
vn 0.9912 0.1323 0.0071
vn 0.9999 0.0151 0.0016
vn -1.0000 -0.0000 0.0001
vn 0.0005 -0.5484 -0.8362
vn 1.0000 -0.0000 -0.0000
vn 1.0000 -0.0001 0.0003
vn 1.0000 -0.0001 0.0005
vn 1.0000 -0.0000 0.0001
vn 1.0000 -0.0001 -0.0003
vn -1.0000 -0.0000 -0.0000
vn -1.0000 -0.0000 -0.0001
vn -1.0000 -0.0001 0.0003
vn -1.0000 -0.0000 -0.0003
vn 0.0002 -0.5483 -0.8363
s 0
f 6//1 5//1 4//1
f 8//2 7//2 9//2
f 12//3 15//3 40//3
f 10//4 1//4 15//4
f 15//5 12//5 10//5
f 11//6 1//6 10//6
f 16//7 141//7 17//7
f 20//8 144//8 21//8
f 28//9 29//9 30//9
f 10//10 33//10 11//10
f 34//11 36//11 31//11
f 11//12 33//12 13//12
f 35//13 7//13 8//13
f 38//14 37//14 36//14
f 37//15 31//15 36//15
f 34//16 31//16 41//16
f 181//17 19//17 18//17
f 22//18 19//18 181//18
f 181//19 42//19 22//19
f 43//20 44//20 38//20
f 37//21 38//21 44//21
f 22//22 42//22 45//22
f 4//23 5//23 46//23
f 47//24 48//24 46//24
f 43//25 38//25 49//25
f 185//26 39//26 23//26
f 40//27 2//27 3//27
f 52//28 53//28 7//28
f 7//29 35//29 51//29
f 22//30 23//30 54//30
f 56//31 36//31 34//31
f 38//32 36//32 54//32
f 55//33 56//33 34//33
f 36//34 56//34 54//34
f 50//35 46//35 5//35
f 60//36 47//36 46//36
f 19//37 22//37 55//37
f 55//38 22//38 56//38
f 54//39 56//39 22//39
f 54//40 23//40 49//40
f 23//41 39//41 49//41
f 39//42 40//42 49//42
f 63//13 35//13 8//13
f 64//43 35//43 63//43
f 38//44 54//44 49//44
f 66//45 64//45 65//45
f 63//43 65//43 64//43
f 69//16 68//16 70//16
f 65//46 71//46 66//46
f 48//47 66//47 71//47
f 67//48 43//48 49//48
f 66//24 48//24 47//24
f 64//49 68//49 35//49
f 68//50 57//50 35//50
f 66//51 47//51 73//51
f 60//52 73//52 47//52
f 68//53 72//53 70//53
f 68//54 64//54 72//54
f 64//55 66//55 72//55
f 73//56 70//56 72//56
f 72//57 66//57 73//57
f 67//58 49//58 40//58
f 52//59 86//59 76//59
f 75//60 86//60 52//60
f 70//61 73//61 81//61
f 40//62 3//62 12//62
f 103//63 6//63 76//63
f 73//64 74//64 81//64
f 69//65 70//65 78//65
f 90//59 78//59 89//59
f 93//59 76//59 86//59
f 81//15 89//15 78//15
f 70//66 81//66 78//66
f 96//67 89//67 81//67
f 74//68 87//68 81//68
f 87//21 96//21 81//21
f 92//69 97//69 91//69
f 92//70 100//70 97//70
f 91//71 97//71 99//71
f 95//72 102//72 101//72
f 5//73 104//73 50//73
f 76//74 93//74 103//74
f 5//75 6//75 104//75
f 103//76 104//76 6//76
f 93//77 104//77 103//77
f 57//78 110//78 51//78
f 51//79 35//79 57//79
f 99//80 85//80 84//80
f 34//81 41//81 85//81
f 84//59 85//59 41//59
f 7//82 51//82 52//82
f 110//83 75//83 51//83
f 52//84 51//84 75//84
f 68//16 69//16 57//16
f 110//85 57//85 69//85
f 106//59 32//59 117//59
f 117//86 32//86 119//86
f 120//59 119//59 32//59
f 119//59 120//59 121//59
f 106//59 117//59 125//59
f 104//59 127//59 50//59
f 109//87 128//87 126//87
f 60//88 50//88 127//88
f 127//71 74//71 60//71
f 73//85 60//85 74//85
f 60//89 46//89 50//89
f 129//90 130//90 75//90
f 108//91 107//91 62//91
f 107//92 61//92 62//92
f 102//93 109//93 132//93
f 135//94 131//94 134//94
f 117//59 124//59 125//59
f 98//59 135//59 114//59
f 118//59 114//59 135//59
f 118//59 125//59 114//59
f 124//59 114//59 125//59
f 135//59 98//59 152//59
f 58//59 139//59 148//59
f 58//59 121//59 120//59
f 134//95 131//95 136//95
f 141//96 142//96 108//96
f 115//97 108//97 142//97
f 62//98 143//98 108//98
f 79//99 144//99 62//99
f 143//100 141//100 108//100
f 143//101 62//101 144//101
f 128//102 135//102 134//102
f 142//103 138//103 115//103
f 116//104 115//104 138//104
f 41//105 31//105 63//105
f 44//106 48//106 71//106
f 126//107 146//107 132//107
f 171//108 127//108 104//108
f 109//109 126//109 132//109
f 20//110 141//110 143//110
f 143//111 144//111 20//111
f 102//112 132//112 101//112
f 132//113 146//113 145//113
f 138//114 142//114 16//114
f 142//115 141//115 16//115
f 149//116 147//116 145//116
f 171//117 150//117 127//117
f 148//59 121//59 58//59
f 17//118 141//118 20//118
f 130//119 86//119 75//119
f 138//120 16//120 25//120
f 147//121 101//121 145//121
f 101//122 132//122 145//122
f 28//123 154//123 155//123
f 152//59 153//59 139//59
f 153//59 122//59 139//59
f 130//59 129//59 123//59
f 157//124 155//124 154//124
f 151//125 146//125 136//125
f 148//59 139//59 122//59
f 126//126 128//126 146//126
f 128//127 134//127 146//127
f 136//128 146//128 134//128
f 154//129 112//129 156//129
f 154//130 156//130 157//130
f 123//59 159//59 130//59
f 160//131 86//131 130//131
f 160//132 130//132 159//132
f 86//133 160//133 93//133
f 146//134 151//134 145//134
f 112//135 116//135 156//135
f 131//136 161//136 136//136
f 157//137 156//137 24//137
f 138//138 156//138 116//138
f 138//139 24//139 156//139
f 30//140 111//140 163//140
f 164//141 113//141 154//141
f 165//85 180//85 162//85
f 113//142 163//142 111//142
f 112//143 154//143 113//143
f 163//144 28//144 30//144
f 159//145 117//145 119//145
f 153//59 152//59 98//59
f 159//86 158//86 160//86
f 133//146 93//146 160//146
f 16//147 17//147 172//147
f 17//148 20//148 173//148
f 20//149 21//149 173//149
f 28//150 164//150 154//150
f 28//151 163//151 164//151
f 111//152 30//152 177//152
f 138//153 25//153 24//153
f 155//154 157//154 168//154
f 168//155 157//155 24//155
f 133//85 160//85 158//85
f 25//156 168//156 24//156
f 25//157 16//157 172//157
f 133//158 104//158 93//158
f 155//159 169//159 28//159
f 171//78 133//78 170//78
f 158//16 170//16 133//16
f 171//160 104//160 133//160
f 85//161 99//161 173//161
f 99//162 172//162 173//162
f 90//163 137//163 140//163
f 110//164 140//164 129//164
f 129//165 75//165 110//165
f 123//59 129//59 137//59
f 177//166 33//166 111//166
f 176//167 174//167 58//167
f 175//168 174//168 176//168
f 166//169 175//169 176//169
f 166//170 95//170 101//170
f 161//171 131//171 178//171
f 152//172 139//172 178//172
f 111//173 33//173 105//173
f 178//174 26//174 161//174
f 88//175 105//175 179//175
f 179//176 105//176 33//176
f 174//177 27//177 26//177
f 13//178 177//178 29//178
f 30//179 29//179 177//179
f 3//180 179//180 12//180
f 12//181 179//181 10//181
f 179//182 33//182 10//182
f 183//59 180//59 165//59
f 165//78 182//78 183//78
f 33//183 177//183 13//183
f 83//184 181//184 79//184
f 43//185 183//185 182//185
f 182//186 44//186 43//186
f 78//187 90//187 140//187
f 140//188 110//188 69//188
f 109//189 102//189 106//189
f 69//190 78//190 140//190
f 184//191 144//191 79//191
f 129//192 140//192 137//192
f 144//193 184//193 18//193
f 184//194 79//194 181//194
f 184//195 181//195 18//195
f 137//196 117//196 123//196
f 175//197 166//197 147//197
f 147//198 166//198 101//198
f 18//199 21//199 144//199
f 173//200 172//200 17//200
f 145//201 151//201 149//201
f 21//202 18//202 173//202
f 181//203 83//203 42//203
f 149//204 27//204 175//204
f 25//205 172//205 100//205
f 55//206 173//206 18//206
f 149//207 175//207 147//207
f 159//208 123//208 117//208
f 82//209 45//209 83//209
f 45//210 23//210 22//210
f 27//211 174//211 175//211
f 42//212 83//212 45//212
f 136//213 161//213 151//213
f 185//214 45//214 82//214
f 45//215 185//215 23//215
f 151//216 161//216 27//216
f 151//217 27//217 149//217
f 166//218 120//218 32//218
f 159//219 119//219 158//219
f 158//220 121//220 170//220
f 121//221 158//221 119//221
f 124//222 117//222 137//222
f 131//223 152//223 178//223
f 27//224 161//224 26//224
f 98//225 114//225 90//225
f 90//226 114//226 124//226
f 182//227 46//227 48//227
f 172//228 97//228 100//228
f 170//78 59//78 171//78
f 150//229 171//229 59//229
f 100//230 168//230 25//230
f 90//231 124//231 137//231
f 94//232 167//232 92//232
f 128//233 118//233 135//233
f 167//234 100//234 92//234
f 167//235 155//235 168//235
f 100//236 167//236 168//236
f 97//237 172//237 99//237
f 2//238 39//238 185//238
f 80//239 2//239 185//239
f 173//240 55//240 85//240
f 34//241 85//241 55//241
f 82//242 80//242 185//242
f 18//243 19//243 55//243
f 80//244 14//244 2//244
f 40//245 15//245 67//245
f 14//246 3//246 2//246
f 187//247 1//247 11//247
f 2//248 40//248 39//248
f 179//249 14//249 88//249
f 187//250 11//250 13//250
f 29//251 187//251 13//251
f 3//252 14//252 179//252
f 29//253 28//253 169//253
f 87//254 150//254 59//254
f 180//255 187//255 162//255
f 87//256 74//256 127//256
f 150//257 87//257 127//257
f 96//59 87//59 59//59
f 162//258 186//258 94//258
f 167//259 94//259 169//259
f 186//260 162//260 187//260
f 170//261 121//261 148//261
f 170//262 148//262 59//262
f 169//263 94//263 186//263
f 96//264 59//264 122//264
f 148//265 122//265 59//265
f 7//266 53//266 9//266
f 188//267 9//267 53//267
f 76//268 53//268 52//268
f 90//269 89//269 98//269
f 89//270 96//270 98//270
f 98//271 96//271 153//271
f 122//272 153//272 96//272
f 29//273 186//273 187//273
f 29//274 169//274 186//274
f 6//275 189//275 77//275
f 155//276 167//276 169//276
f 77//277 76//277 6//277
f 53//278 76//278 77//278
f 15//279 183//279 67//279
f 77//280 188//280 53//280
f 106//281 102//281 32//281
f 102//282 95//282 32//282
f 15//283 1//283 183//283
f 189//284 188//284 77//284
f 187//285 180//285 1//285
f 43//286 67//286 183//286
f 183//287 1//287 180//287
f 189//275 6//275 4//275
f 26//288 139//288 174//288
f 31//289 37//289 65//289
f 71//290 65//290 37//290
f 65//291 63//291 31//291
f 44//292 71//292 37//292
f 4//293 162//293 94//293
f 46//294 182//294 165//294
f 63//295 8//295 41//295
f 109//296 125//296 128//296
f 135//297 152//297 131//297
f 99//298 188//298 91//298
f 32//299 95//299 166//299
f 165//300 162//300 4//300
f 4//301 94//301 189//301
f 8//302 9//302 84//302
f 9//303 99//303 84//303
f 84//304 41//304 8//304
f 118//305 128//305 125//305
f 106//306 125//306 109//306
f 176//307 120//307 166//307
f 44//308 182//308 48//308
f 58//309 174//309 139//309
f 120//310 176//310 58//310
f 4//311 46//311 165//311
f 139//312 26//312 178//312
f 9//313 188//313 99//313
f 92//314 91//314 188//314
f 188//315 189//315 92//315
f 189//316 94//316 92//316
f 79//317 62//317 88//317
f 88//318 107//318 105//318
f 116//319 112//319 105//319
f 112//320 113//320 105//320
f 113//321 111//321 105//321
f 107//319 108//319 105//319
f 108//322 115//322 105//322
f 115//323 116//323 105//323
f 62//324 61//324 88//324
f 14//325 80//325 88//325
f 80//326 82//326 88//326
f 82//327 83//327 88//327
f 83//324 79//324 88//324
f 88//328 61//328 107//328
