# Blender v2.79 (sub 0) OBJ File: 'cible.blend1'
# www.blender.org
mtllib cible.mtl
o Cube
v 0.200000 -1.177143 0.097143
v 0.200000 -1.177143 0.297143
v 0.200000 0.422857 0.097143
v 0.200000 0.422857 0.297143
v 0.600000 0.622857 0.097143
v 0.600000 1.022857 0.097143
v 0.200000 1.222857 0.097143
v 0.600000 0.622857 0.297143
v 0.600000 1.022857 0.297143
v 0.200000 1.222857 0.297143
v 0.200000 -0.977143 0.097143
v 0.200000 -0.977143 -0.902857
v 0.200000 -1.177143 -0.902857
v 0.000000 -1.177143 0.097143
v -0.200000 -1.177143 0.097143
v -0.200000 -1.177143 0.297143
v 0.000000 -1.177143 0.297143
v 0.000000 0.422857 0.097143
v -0.200000 0.422857 0.097143
v -0.200000 0.422857 0.297143
v 0.000000 0.422857 0.297143
v -0.600000 0.622857 0.097143
v -0.600000 1.022857 0.097143
v -0.200000 1.222857 0.097143
v 0.000000 1.222857 0.097143
v -0.600000 0.622857 0.297143
v -0.600000 1.022857 0.297143
v -0.200000 1.222857 0.297143
v 0.000000 1.222857 0.297143
v -0.200000 -0.977143 0.097143
v -0.200000 -0.977143 -0.902857
v -0.200000 -1.177143 -0.902857
v -0.000000 -1.177143 -0.902857
v -0.000000 -0.977143 -0.902857
v 0.000000 -0.977143 0.097143
vn 0.0000 -1.0000 0.0000
vn 0.0000 0.0000 1.0000
vn 0.0000 1.0000 0.0000
vn 0.4472 0.8944 0.0000
vn -0.0000 0.0000 -1.0000
vn 1.0000 0.0000 0.0000
vn 0.4472 -0.8944 0.0000
vn -0.4472 0.8944 0.0000
vn -1.0000 0.0000 0.0000
vn -0.4472 -0.8944 0.0000
usemtl Material
s off
f 1//1 17//1 14//1
f 10//2 29//2 4//2
f 4//2 17//2 2//2
f 29//3 7//3 25//3
f 10//4 6//4 7//4
f 6//5 5//5 3//5
f 9//6 5//6 6//6
f 8//7 3//7 5//7
f 3//5 35//5 18//5
f 13//6 11//6 1//6
f 33//1 1//1 14//1
f 12//3 35//3 11//3
f 11//6 3//6 4//6
f 13//5 34//5 12//5
f 17//1 15//1 14//1
f 27//2 26//2 20//2
f 17//2 20//2 16//2
f 24//3 29//3 25//3
f 23//8 28//8 24//8
f 24//5 25//5 19//5
f 22//9 27//9 23//9
f 19//10 26//10 22//10
f 35//5 19//5 18//5
f 30//9 32//9 15//9
f 15//1 33//1 14//1
f 35//3 31//3 30//3
f 20//9 19//9 30//9
f 34//5 32//5 31//5
f 1//1 2//1 17//1
f 29//2 21//2 4//2
f 4//2 8//2 9//2
f 9//2 10//2 4//2
f 4//2 21//2 17//2
f 29//3 10//3 7//3
f 10//4 9//4 6//4
f 3//5 18//5 25//5
f 25//5 7//5 3//5
f 7//5 6//5 3//5
f 9//6 8//6 5//6
f 8//7 4//7 3//7
f 3//5 11//5 35//5
f 13//6 12//6 11//6
f 33//1 13//1 1//1
f 12//3 34//3 35//3
f 4//6 2//6 11//6
f 2//6 1//6 11//6
f 13//5 33//5 34//5
f 17//1 16//1 15//1
f 20//2 21//2 29//2
f 29//2 28//2 20//2
f 28//2 27//2 20//2
f 17//2 21//2 20//2
f 24//3 28//3 29//3
f 23//8 27//8 28//8
f 25//5 18//5 19//5
f 19//5 22//5 23//5
f 23//5 24//5 19//5
f 22//9 26//9 27//9
f 19//10 20//10 26//10
f 35//5 30//5 19//5
f 30//9 31//9 32//9
f 15//1 32//1 33//1
f 35//3 34//3 31//3
f 15//9 16//9 30//9
f 16//9 20//9 30//9
f 34//5 33//5 32//5
l 14 35
