# Blender v2.79 (sub 0) OBJ File: ''
# www.blender.org
o Cylinder
v 0.000000 1.000000 1.000000
v 0.195090 0.980785 -1.000000
v 0.000000 1.000000 -1.000000
v 0.195090 0.980785 1.000000
v 0.382683 0.923880 -1.000000
v 0.382683 0.923879 1.000000
v 0.555570 0.831470 -1.000000
v 0.555570 0.831470 1.000000
v 0.707107 0.707107 -1.000000
v 0.707107 0.707107 1.000000
v 0.831470 0.555570 -1.000000
v 0.831470 0.555570 1.000000
v 0.923880 0.382683 -1.000000
v 0.923880 0.382683 1.000000
v 0.980785 0.195090 -1.000000
v 0.980785 0.195090 1.000000
v 1.000000 0.000000 -1.000000
v 1.000000 -0.000000 1.000000
v 0.980785 -0.195090 -1.000000
v 0.980785 -0.195090 1.000000
v 0.923880 -0.382683 -1.000000
v 0.923880 -0.382683 1.000000
v 0.831470 -0.555570 -1.000000
v 0.831470 -0.555570 1.000000
v 0.707107 -0.707107 -1.000000
v 0.707107 -0.707107 1.000000
v 0.555570 -0.831470 -1.000000
v 0.555570 -0.831470 1.000000
v 0.382683 -0.923880 -1.000000
v 0.382683 -0.923880 1.000000
v 0.195090 -0.980785 -1.000000
v 0.195090 -0.980785 1.000000
v 0.000000 -1.000000 -1.000000
v 0.000000 -1.000000 1.000000
v -0.195091 -0.980785 -1.000000
v -0.195091 -0.980785 1.000000
v -0.382684 -0.923879 -1.000000
v -0.382684 -0.923879 1.000000
v -0.555571 -0.831469 -1.000000
v -0.555571 -0.831469 1.000000
v -0.707107 -0.707106 -1.000000
v -0.707107 -0.707106 1.000000
v -0.831470 -0.555570 -1.000000
v -0.831470 -0.555570 1.000000
v -0.923880 -0.382683 -1.000000
v -0.923880 -0.382683 1.000000
v -0.980785 -0.195089 -1.000000
v -0.980785 -0.195090 1.000000
v -1.000000 0.000001 -1.000000
v -1.000000 0.000001 1.000000
v -0.980785 0.195091 -1.000000
v -0.980785 0.195091 1.000000
v -0.923879 0.382684 -1.000000
v -0.923879 0.382684 1.000000
v -0.831469 0.555571 -1.000000
v -0.831469 0.555571 1.000000
v -0.707106 0.707108 -1.000000
v -0.707106 0.707108 1.000000
v -0.555569 0.831470 -1.000000
v -0.555569 0.831470 1.000000
v -0.382682 0.923880 -1.000000
v -0.382682 0.923880 1.000000
v -0.195089 0.980786 -1.000000
v -0.195089 0.980785 1.000000
vt 0.875212 0.000000
vt 0.910757 0.500000
vt 0.875212 0.500000
vt 0.910757 0.000000
vt 0.944240 0.500000
vt 0.944240 0.000000
vt 0.974373 0.500000
vt 0.974373 0.000000
vt 1.000000 0.500000
vt 0.367964 0.000000
vt 0.388099 0.500000
vt 0.367964 0.500000
vt 0.388099 0.000000
vt 0.413725 0.500000
vt 0.413725 0.000000
vt 0.443859 0.500000
vt 0.443859 0.000000
vt 0.477341 0.500000
vt 0.477341 0.000000
vt 0.512886 0.500000
vt 0.512886 0.000000
vt 0.549127 0.500000
vt 0.549127 0.000000
vt 0.584672 0.500000
vt 0.584672 0.000000
vt 0.618155 0.500000
vt 0.618155 0.000000
vt 0.648288 0.500000
vt 0.648288 0.000000
vt 0.673915 0.500000
vt 0.673915 0.000000
vt 0.694049 0.500000
vt 0.694049 1.000000
vt 0.673915 0.500000
vt 0.673915 1.000000
vt 0.648288 0.500000
vt 0.648288 1.000000
vt 0.618155 0.500000
vt 0.618155 1.000000
vt 0.584672 0.500000
vt 0.584672 1.000000
vt 0.549127 0.500000
vt 0.549127 1.000000
vt 0.512886 0.500000
vt 0.512886 1.000000
vt 0.477341 0.500000
vt 0.477341 1.000000
vt 0.443858 0.500000
vt 0.443858 1.000000
vt 0.413725 0.500000
vt 0.413725 1.000000
vt 0.388098 0.500000
vt 0.388098 1.000000
vt 0.367964 0.500000
vt 0.694049 0.000000
vt 0.714184 0.500000
vt 0.694049 0.500000
vt 0.714184 0.000000
vt 0.739810 0.500000
vt 0.739810 0.000000
vt 0.769944 0.500000
vt 0.769944 0.000000
vt 0.803427 0.500000
vt 0.096833 0.525908
vt 0.347024 0.628539
vt 0.271130 0.966868
vt 0.803427 0.000000
vt 0.838971 0.500000
vt 0.838971 0.000000
vt 0.007070 0.321368
vt 0.130316 0.009561
vt 0.360893 0.176225
vt 1.000000 0.000000
vt 0.694049 0.000000
vt 0.367964 1.000000
vt 0.020939 0.864238
vt 0.007070 0.818960
vt 0.000000 0.770893
vt 0.000000 0.721885
vt 0.007070 0.673818
vt 0.020939 0.628540
vt 0.041073 0.587790
vt 0.066700 0.553136
vt 0.130316 0.507153
vt 0.165861 0.497592
vt 0.202102 0.497592
vt 0.237647 0.507153
vt 0.271130 0.525908
vt 0.301263 0.553135
vt 0.326890 0.587789
vt 0.360893 0.673817
vt 0.367964 0.721884
vt 0.367964 0.770892
vt 0.360894 0.818959
vt 0.347025 0.864237
vt 0.326890 0.904986
vt 0.301264 0.939641
vt 0.237648 0.985623
vt 0.202103 0.995184
vt 0.165862 0.995184
vt 0.130317 0.985623
vt 0.096834 0.966869
vt 0.066700 0.939641
vt 0.041074 0.904987
vt 0.237648 0.488031
vt 0.202103 0.497592
vt 0.165862 0.497592
vt 0.130317 0.488031
vt 0.096834 0.469277
vt 0.066700 0.442049
vt 0.041074 0.407395
vt 0.020939 0.366645
vt 0.000000 0.273301
vt 0.000000 0.224292
vt 0.007070 0.176225
vt 0.020939 0.130947
vt 0.041074 0.090198
vt 0.066700 0.055544
vt 0.096834 0.028316
vt 0.165861 0.000000
vt 0.202102 0.000000
vt 0.237647 0.009561
vt 0.271130 0.028316
vt 0.301263 0.055543
vt 0.326890 0.090198
vt 0.347025 0.130947
vt 0.367964 0.224292
vt 0.367964 0.273300
vt 0.360894 0.321367
vt 0.347025 0.366645
vt 0.326890 0.407394
vt 0.301264 0.442049
vt 0.271130 0.469276
vn 0.0980 0.9952 0.0000
vn 0.2903 0.9569 0.0000
vn 0.4714 0.8819 0.0000
vn 0.6344 0.7730 0.0000
vn 0.7730 0.6344 0.0000
vn 0.8819 0.4714 0.0000
vn 0.9569 0.2903 0.0000
vn 0.9952 0.0980 0.0000
vn 0.9952 -0.0980 -0.0000
vn 0.9569 -0.2903 -0.0000
vn 0.8819 -0.4714 -0.0000
vn 0.7730 -0.6344 -0.0000
vn 0.6344 -0.7730 -0.0000
vn 0.4714 -0.8819 -0.0000
vn 0.2903 -0.9569 -0.0000
vn 0.0980 -0.9952 -0.0000
vn -0.0980 -0.9952 -0.0000
vn -0.2903 -0.9569 -0.0000
vn -0.4714 -0.8819 -0.0000
vn -0.6344 -0.7730 -0.0000
vn -0.7730 -0.6344 -0.0000
vn -0.8819 -0.4714 -0.0000
vn -0.9569 -0.2903 -0.0000
vn -0.9952 -0.0980 -0.0000
vn -0.9952 0.0980 0.0000
vn -0.9569 0.2903 0.0000
vn -0.8819 0.4714 0.0000
vn -0.7730 0.6344 0.0000
vn -0.6344 0.7730 0.0000
vn -0.4714 0.8819 0.0000
vn -0.0000 -0.0000 1.0000
vn -0.2903 0.9569 0.0000
vn -0.0980 0.9952 0.0000
vn -0.0000 0.0000 -1.0000
s 1
f 1/1/1 2/2/1 3/3/1
f 4/4/2 5/5/2 2/2/2
f 6/6/3 7/7/3 5/5/3
f 8/8/4 9/9/4 7/7/4
f 10/10/5 11/11/5 9/12/5
f 12/13/6 13/14/6 11/11/6
f 14/15/7 15/16/7 13/14/7
f 16/17/8 17/18/8 15/16/8
f 18/19/9 19/20/9 17/18/9
f 20/21/10 21/22/10 19/20/10
f 22/23/11 23/24/11 21/22/11
f 24/25/12 25/26/12 23/24/12
f 26/27/13 27/28/13 25/26/13
f 28/29/14 29/30/14 27/28/14
f 30/31/15 31/32/15 29/30/15
f 32/33/16 33/34/16 31/32/16
f 34/35/17 35/36/17 33/34/17
f 36/37/18 37/38/18 35/36/18
f 38/39/19 39/40/19 37/38/19
f 40/41/20 41/42/20 39/40/20
f 42/43/21 43/44/21 41/42/21
f 44/45/22 45/46/22 43/44/22
f 46/47/23 47/48/23 45/46/23
f 48/49/24 49/50/24 47/48/24
f 50/51/25 51/52/25 49/50/25
f 52/53/26 53/54/26 51/52/26
f 54/55/27 55/56/27 53/57/27
f 56/58/28 57/59/28 55/56/28
f 58/60/29 59/61/29 57/59/29
f 60/62/30 61/63/30 59/61/30
f 54/64/31 38/65/31 22/66/31
f 62/67/32 63/68/32 61/63/32
f 64/69/33 3/3/33 63/68/33
f 15/70/34 31/71/34 47/72/34
f 1/1/1 4/4/1 2/2/1
f 4/4/2 6/6/2 5/5/2
f 6/6/3 8/8/3 7/7/3
f 8/8/4 10/73/4 9/9/4
f 10/10/5 12/13/5 11/11/5
f 12/13/6 14/15/6 13/14/6
f 14/15/7 16/17/7 15/16/7
f 16/17/8 18/19/8 17/18/8
f 18/19/9 20/21/9 19/20/9
f 20/21/10 22/23/10 21/22/10
f 22/23/11 24/25/11 23/24/11
f 24/25/12 26/27/12 25/26/12
f 26/27/13 28/29/13 27/28/13
f 28/29/14 30/31/14 29/30/14
f 30/31/15 32/74/15 31/32/15
f 32/33/16 34/35/16 33/34/16
f 34/35/17 36/37/17 35/36/17
f 36/37/18 38/39/18 37/38/18
f 38/39/19 40/41/19 39/40/19
f 40/41/20 42/43/20 41/42/20
f 42/43/21 44/45/21 43/44/21
f 44/45/22 46/47/22 45/46/22
f 46/47/23 48/49/23 47/48/23
f 48/49/24 50/51/24 49/50/24
f 50/51/25 52/53/25 51/52/25
f 52/53/26 54/75/26 53/54/26
f 54/55/27 56/58/27 55/56/27
f 56/58/28 58/60/28 57/59/28
f 58/60/29 60/62/29 59/61/29
f 60/62/30 62/67/30 61/63/30
f 6/76/31 4/77/31 1/78/31
f 1/78/31 64/79/31 6/76/31
f 64/79/31 62/80/31 6/76/31
f 62/80/31 60/81/31 58/82/31
f 58/82/31 56/83/31 54/64/31
f 54/64/31 52/84/31 50/85/31
f 50/85/31 48/86/31 54/64/31
f 48/86/31 46/87/31 54/64/31
f 46/87/31 44/88/31 38/65/31
f 44/88/31 42/89/31 38/65/31
f 42/89/31 40/90/31 38/65/31
f 38/65/31 36/91/31 34/92/31
f 34/92/31 32/93/31 30/94/31
f 30/94/31 28/95/31 26/96/31
f 26/96/31 24/97/31 22/66/31
f 22/66/31 20/98/31 18/99/31
f 18/99/31 16/100/31 22/66/31
f 16/100/31 14/101/31 22/66/31
f 14/101/31 12/102/31 10/103/31
f 10/103/31 8/104/31 6/76/31
f 62/80/31 58/82/31 6/76/31
f 58/82/31 54/64/31 6/76/31
f 38/65/31 34/92/31 22/66/31
f 34/92/31 30/94/31 22/66/31
f 30/94/31 26/96/31 22/66/31
f 14/101/31 10/103/31 22/66/31
f 10/103/31 6/76/31 22/66/31
f 54/64/31 46/87/31 38/65/31
f 6/76/31 54/64/31 22/66/31
f 62/67/32 64/69/32 63/68/32
f 64/69/33 1/1/33 3/3/33
f 63/105/34 3/106/34 2/107/34
f 2/107/34 5/108/34 7/109/34
f 7/109/34 9/110/34 11/111/34
f 11/111/34 13/112/34 7/109/34
f 13/112/34 15/70/34 7/109/34
f 15/70/34 17/113/34 19/114/34
f 19/114/34 21/115/34 15/70/34
f 21/115/34 23/116/34 15/70/34
f 23/116/34 25/117/34 31/71/34
f 25/117/34 27/118/34 31/71/34
f 27/118/34 29/119/34 31/71/34
f 31/71/34 33/120/34 35/121/34
f 35/121/34 37/122/34 39/123/34
f 39/123/34 41/124/34 43/125/34
f 43/125/34 45/126/34 47/72/34
f 47/72/34 49/127/34 51/128/34
f 51/128/34 53/129/34 55/130/34
f 55/130/34 57/131/34 63/105/34
f 57/131/34 59/132/34 63/105/34
f 59/132/34 61/133/34 63/105/34
f 63/105/34 2/107/34 7/109/34
f 31/71/34 35/121/34 47/72/34
f 35/121/34 39/123/34 47/72/34
f 39/123/34 43/125/34 47/72/34
f 47/72/34 51/128/34 63/105/34
f 51/128/34 55/130/34 63/105/34
f 63/105/34 7/109/34 15/70/34
f 15/70/34 23/116/34 31/71/34
f 63/105/34 15/70/34 47/72/34
