# Blender v2.79 (sub 0) OBJ File: 'support_cible.blend1'
# www.blender.org
mtllib support_cible.mtl
o Cube
v 0.500000 -0.700000 -0.500000
v 0.500000 -0.700000 0.500000
v 0.500000 0.300000 -0.500000
v 0.500000 0.300000 0.500000
v 1.000000 0.800000 -0.500000
v 1.000000 0.800000 0.500000
v 1.000000 0.300000 0.500000
v 1.000000 0.300000 -0.500000
v 0.750000 0.800000 -0.500000
v 0.750000 0.800000 0.500000
v -0.000000 -0.700000 -0.500000
v -0.500000 -0.700000 -0.500000
v -0.500000 -0.700000 0.500000
v 0.000000 -0.700000 0.500000
v -0.000000 0.300000 -0.500000
v -0.500000 0.300000 -0.500000
v -0.500000 0.300000 0.500000
v 0.000000 0.300000 0.500000
v -1.000000 0.800000 -0.500000
v -1.000000 0.800000 0.500000
v -1.000000 0.300000 0.500000
v -1.000000 0.300000 -0.500000
v -0.750000 0.800000 -0.500000
v -0.750000 0.800000 0.500000
vn 0.0000 -1.0000 -0.0000
vn 0.0000 1.0000 -0.0000
vn 0.0000 -0.0000 -1.0000
vn -0.8944 0.4472 -0.0000
vn -0.0000 -0.0000 1.0000
vn 1.0000 0.0000 0.0000
vn 0.8944 -0.4472 0.0000
vn 0.8944 0.4472 -0.0000
vn -1.0000 0.0000 0.0000
vn -0.8944 -0.4472 0.0000
usemtl Material
s off
f 1//1 14//1 11//1
f 18//2 3//2 15//2
f 15//3 1//3 11//3
f 10//4 3//4 4//4
f 4//5 14//5 2//5
f 5//2 10//2 6//2
f 7//5 6//5 10//5
f 6//6 8//6 5//6
f 9//3 5//3 8//3
f 8//7 2//7 1//7
f 14//1 12//1 11//1
f 16//2 18//2 15//2
f 12//3 15//3 11//3
f 16//8 24//8 17//8
f 14//5 17//5 13//5
f 24//2 19//2 20//2
f 24//5 20//5 21//5
f 22//9 20//9 19//9
f 22//3 19//3 23//3
f 13//10 22//10 12//10
f 1//1 2//1 14//1
f 18//2 4//2 3//2
f 15//3 3//3 1//3
f 10//4 9//4 3//4
f 4//5 18//5 14//5
f 5//2 9//2 10//2
f 10//5 4//5 7//5
f 4//5 2//5 7//5
f 6//6 7//6 8//6
f 1//3 3//3 8//3
f 3//3 9//3 8//3
f 8//7 7//7 2//7
f 14//1 13//1 12//1
f 16//2 17//2 18//2
f 12//3 16//3 15//3
f 16//8 23//8 24//8
f 14//5 18//5 17//5
f 24//2 23//2 19//2
f 13//5 17//5 21//5
f 17//5 24//5 21//5
f 22//9 21//9 20//9
f 23//3 16//3 22//3
f 16//3 12//3 22//3
f 13//10 21//10 22//10
