# Blender v2.79 (sub 0) OBJ File: 'tank.blend'
# www.blender.org
mtllib tank_chassis.mtl
o Cube
v 1.000000 -1.000000 -0.500000
v 1.000000 -1.000000 0.500000
v -1.000000 -1.000000 0.500000
v -1.000000 -1.000000 -0.500000
v -1.000000 1.000000 1.000000
v 1.000000 1.000000 1.000000
v 1.000000 0.000000 1.000000
v -1.000000 0.000000 1.000000
v 1.000000 1.000000 -1.000000
v 1.000000 0.000000 -1.000000
v -1.000000 1.000000 -1.000000
v -1.000000 0.000000 -1.000000
vn 0.0000 -1.0000 0.0000
vn 0.0000 0.0000 1.0000
vn 0.0000 1.0000 0.0000
vn -1.0000 0.0000 0.0000
vn 1.0000 0.0000 0.0000
vn 0.0000 -0.4472 0.8944
vn 0.0000 0.0000 -1.0000
vn 0.0000 -0.4472 -0.8944
usemtl Material
s off
f 2//1 4//1 1//1
f 6//2 5//2 8//2
f 11//3 5//3 6//3
f 5//4 11//4 3//4
f 6//5 7//5 2//5
f 3//6 7//6 8//6
f 12//7 9//7 10//7
f 12//8 1//8 4//8
f 12//8 10//8 1//8
f 2//1 3//1 4//1
f 6//2 8//2 7//2
f 11//3 6//3 9//3
f 12//4 4//4 11//4
f 4//4 3//4 11//4
f 3//4 8//4 5//4
f 2//5 1//5 9//5
f 1//5 10//5 9//5
f 9//5 6//5 2//5
f 3//6 2//6 7//6
f 12//7 11//7 9//7
