# Blender v2.79 (sub 0) OBJ File: 'tank_turret.blend'
# www.blender.org
mtllib tank_turret.mtl
o Cube
v -1.000000 -1.000000 0.333333
v -1.000000 -1.000000 -1.000000
v 1.000000 -1.000000 -1.000000
v 1.000000 -1.000000 0.333334
v -1.000000 1.000000 0.333333
v -1.000000 0.600000 -1.000000
v -1.000000 1.000000 -0.733333
v 1.000000 1.000000 0.333333
v -0.800000 0.400000 1.000000
v -0.800000 -0.400000 1.000000
v 0.800000 0.400000 1.000000
v 0.800000 -0.400000 1.000000
v 1.000000 0.600000 -1.000000
v 1.000000 1.000000 -0.733333
vn 0.0000 -1.0000 0.0000
vn -0.0000 -0.7433 0.6690
vn 0.0000 0.0000 1.0000
vn 0.0000 0.7433 0.6690
vn 0.9578 0.0000 0.2873
vn -0.9578 -0.0000 0.2873
vn 0.0000 1.0000 0.0000
vn -0.0000 0.5547 -0.8321
vn 0.0000 -0.0000 -1.0000
vn 1.0000 -0.0000 -0.0000
vn -1.0000 0.0000 0.0000
usemtl Material
s off
f 2//1 4//1 1//1
f 4//2 10//2 1//2
f 12//3 9//3 10//3
f 8//4 9//4 11//4
f 8//5 11//5 12//5
f 2//1 3//1 4//1
f 1//6 10//6 5//6
f 10//6 9//6 5//6
f 4//2 12//2 10//2
f 12//3 11//3 9//3
f 8//4 5//4 9//4
f 12//5 4//5 8//5
f 14//7 5//7 8//7
f 13//8 7//8 14//8
f 2//9 13//9 3//9
f 14//10 8//10 4//10
f 6//11 1//11 7//11
f 14//7 7//7 5//7
f 13//8 6//8 7//8
f 2//9 6//9 13//9
f 4//10 3//10 13//10
f 13//10 14//10 4//10
f 2//11 1//11 6//11
f 1//11 5//11 7//11
